<mxfile host="app.diagrams.net" modified="2024-03-28T02:05:09.594Z" agent="Mozilla/5.0 (Windows NT 10.0; Win64; x64) AppleWebKit/537.36 (KHTML, like Gecko) Chrome/123.0.0.0 Safari/537.36" etag="ZekOclp0VsJjwmGPB-4_" version="24.2.0" type="device">
  <diagram name="第 1 页" id="HMCeiJ_DVQun9JmNg5Pe">
    <mxGraphModel dx="1284" dy="675" grid="1" gridSize="10" guides="1" tooltips="1" connect="1" arrows="1" fold="1" page="1" pageScale="1" pageWidth="2000" pageHeight="10000" math="0" shadow="0">
      <root>
        <mxCell id="0" />
        <mxCell id="1" parent="0" />
        <mxCell id="oKW2fMTISq9tYgL3_GIv-1" value="«interface»&lt;br&gt;&lt;b&gt;PizzIngreditentFactory&lt;/b&gt;" style="html=1;whiteSpace=wrap;" parent="1" vertex="1">
          <mxGeometry x="460" y="110" width="180" height="50" as="geometry" />
        </mxCell>
        <mxCell id="oKW2fMTISq9tYgL3_GIv-2" value="careateDough()&lt;br&gt;createSauce()&lt;br&gt;createCheese()&lt;br&gt;create Veggies()&lt;br&gt;createPepperoni()&lt;br&gt;createClam()&lt;br&gt;" style="html=1;whiteSpace=wrap;" parent="1" vertex="1">
          <mxGeometry x="460" y="160" width="180" height="100" as="geometry" />
        </mxCell>
        <mxCell id="oKW2fMTISq9tYgL3_GIv-3" value="&lt;b style=&quot;border-color: var(--border-color);&quot;&gt;NYPizzIngreditentFactory&lt;/b&gt;" style="swimlane;fontStyle=1;align=center;verticalAlign=top;childLayout=stackLayout;horizontal=1;startSize=26;horizontalStack=0;resizeParent=1;resizeParentMax=0;resizeLast=0;collapsible=1;marginBottom=0;whiteSpace=wrap;html=1;" parent="1" vertex="1">
          <mxGeometry x="120" y="390" width="350" height="170" as="geometry" />
        </mxCell>
        <mxCell id="oKW2fMTISq9tYgL3_GIv-4" value="+ field: type" style="text;strokeColor=none;fillColor=none;align=left;verticalAlign=top;spacingLeft=4;spacingRight=4;overflow=hidden;rotatable=0;points=[[0,0.5],[1,0.5]];portConstraint=eastwest;whiteSpace=wrap;html=1;" parent="oKW2fMTISq9tYgL3_GIv-3" vertex="1">
          <mxGeometry y="26" width="350" height="26" as="geometry" />
        </mxCell>
        <mxCell id="oKW2fMTISq9tYgL3_GIv-5" value="" style="line;strokeWidth=1;fillColor=none;align=left;verticalAlign=middle;spacingTop=-1;spacingLeft=3;spacingRight=3;rotatable=0;labelPosition=right;points=[];portConstraint=eastwest;strokeColor=inherit;" parent="oKW2fMTISq9tYgL3_GIv-3" vertex="1">
          <mxGeometry y="52" width="350" height="8" as="geometry" />
        </mxCell>
        <mxCell id="oKW2fMTISq9tYgL3_GIv-6" value="careateDough()&lt;br style=&quot;border-color: var(--border-color); text-align: center;&quot;&gt;&lt;span style=&quot;text-align: center;&quot;&gt;createSauce()&lt;/span&gt;&lt;br style=&quot;border-color: var(--border-color); text-align: center;&quot;&gt;&lt;span style=&quot;text-align: center;&quot;&gt;createCheese()&lt;/span&gt;&lt;br style=&quot;border-color: var(--border-color); text-align: center;&quot;&gt;&lt;span style=&quot;text-align: center;&quot;&gt;create Veggies()&lt;/span&gt;&lt;br style=&quot;border-color: var(--border-color); text-align: center;&quot;&gt;&lt;span style=&quot;text-align: center;&quot;&gt;createPepperoni()&lt;/span&gt;&lt;br style=&quot;border-color: var(--border-color); text-align: center;&quot;&gt;&lt;span style=&quot;text-align: center;&quot;&gt;createClam()&lt;/span&gt;" style="text;strokeColor=none;fillColor=none;align=left;verticalAlign=top;spacingLeft=4;spacingRight=4;overflow=hidden;rotatable=0;points=[[0,0.5],[1,0.5]];portConstraint=eastwest;whiteSpace=wrap;html=1;" parent="oKW2fMTISq9tYgL3_GIv-3" vertex="1">
          <mxGeometry y="60" width="350" height="110" as="geometry" />
        </mxCell>
        <mxCell id="oKW2fMTISq9tYgL3_GIv-8" value="" style="endArrow=block;dashed=1;endFill=0;endSize=12;html=1;rounded=0;entryX=0.557;entryY=1;entryDx=0;entryDy=0;entryPerimeter=0;" parent="1" target="oKW2fMTISq9tYgL3_GIv-2" edge="1">
          <mxGeometry width="160" relative="1" as="geometry">
            <mxPoint x="350" y="390" as="sourcePoint" />
            <mxPoint x="510" y="390" as="targetPoint" />
          </mxGeometry>
        </mxCell>
        <mxCell id="oKW2fMTISq9tYgL3_GIv-9" value="&lt;b style=&quot;border-color: var(--border-color);&quot;&gt;NYPizzIngreditentFactory&lt;/b&gt;" style="swimlane;fontStyle=1;align=center;verticalAlign=top;childLayout=stackLayout;horizontal=1;startSize=26;horizontalStack=0;resizeParent=1;resizeParentMax=0;resizeLast=0;collapsible=1;marginBottom=0;whiteSpace=wrap;html=1;" parent="1" vertex="1">
          <mxGeometry x="500" y="380" width="350" height="170" as="geometry" />
        </mxCell>
        <mxCell id="oKW2fMTISq9tYgL3_GIv-10" value="+ field: type" style="text;strokeColor=none;fillColor=none;align=left;verticalAlign=top;spacingLeft=4;spacingRight=4;overflow=hidden;rotatable=0;points=[[0,0.5],[1,0.5]];portConstraint=eastwest;whiteSpace=wrap;html=1;" parent="oKW2fMTISq9tYgL3_GIv-9" vertex="1">
          <mxGeometry y="26" width="350" height="26" as="geometry" />
        </mxCell>
        <mxCell id="oKW2fMTISq9tYgL3_GIv-11" value="" style="line;strokeWidth=1;fillColor=none;align=left;verticalAlign=middle;spacingTop=-1;spacingLeft=3;spacingRight=3;rotatable=0;labelPosition=right;points=[];portConstraint=eastwest;strokeColor=inherit;" parent="oKW2fMTISq9tYgL3_GIv-9" vertex="1">
          <mxGeometry y="52" width="350" height="8" as="geometry" />
        </mxCell>
        <mxCell id="oKW2fMTISq9tYgL3_GIv-12" value="careateDough()&lt;br style=&quot;border-color: var(--border-color); text-align: center;&quot;&gt;&lt;span style=&quot;text-align: center;&quot;&gt;createSauce()&lt;/span&gt;&lt;br style=&quot;border-color: var(--border-color); text-align: center;&quot;&gt;&lt;span style=&quot;text-align: center;&quot;&gt;createCheese()&lt;/span&gt;&lt;br style=&quot;border-color: var(--border-color); text-align: center;&quot;&gt;&lt;span style=&quot;text-align: center;&quot;&gt;create Veggies()&lt;/span&gt;&lt;br style=&quot;border-color: var(--border-color); text-align: center;&quot;&gt;&lt;span style=&quot;text-align: center;&quot;&gt;createPepperoni()&lt;/span&gt;&lt;br style=&quot;border-color: var(--border-color); text-align: center;&quot;&gt;&lt;span style=&quot;text-align: center;&quot;&gt;createClam()&lt;/span&gt;" style="text;strokeColor=none;fillColor=none;align=left;verticalAlign=top;spacingLeft=4;spacingRight=4;overflow=hidden;rotatable=0;points=[[0,0.5],[1,0.5]];portConstraint=eastwest;whiteSpace=wrap;html=1;" parent="oKW2fMTISq9tYgL3_GIv-9" vertex="1">
          <mxGeometry y="60" width="350" height="110" as="geometry" />
        </mxCell>
        <mxCell id="oKW2fMTISq9tYgL3_GIv-13" value="" style="endArrow=block;dashed=1;endFill=0;endSize=12;html=1;rounded=0;exitX=0.578;exitY=0.016;exitDx=0;exitDy=0;exitPerimeter=0;" parent="1" source="oKW2fMTISq9tYgL3_GIv-9" edge="1">
          <mxGeometry width="160" relative="1" as="geometry">
            <mxPoint x="801.7" y="375.9200000000001" as="sourcePoint" />
            <mxPoint x="560" y="260" as="targetPoint" />
          </mxGeometry>
        </mxCell>
        <mxCell id="oKW2fMTISq9tYgL3_GIv-14" value="" style="endArrow=open;endFill=1;endSize=12;html=1;rounded=0;exitX=0.39;exitY=1.024;exitDx=0;exitDy=0;exitPerimeter=0;" parent="1" source="oKW2fMTISq9tYgL3_GIv-6" target="oKW2fMTISq9tYgL3_GIv-16" edge="1">
          <mxGeometry width="160" relative="1" as="geometry">
            <mxPoint x="20" y="590" as="sourcePoint" />
            <mxPoint x="180" y="590" as="targetPoint" />
          </mxGeometry>
        </mxCell>
        <mxCell id="oKW2fMTISq9tYgL3_GIv-15" value="«interface»&lt;br&gt;&lt;b&gt;Douth&lt;/b&gt;" style="html=1;whiteSpace=wrap;" parent="1" vertex="1">
          <mxGeometry x="440" y="600" width="180" height="50" as="geometry" />
        </mxCell>
        <mxCell id="oKW2fMTISq9tYgL3_GIv-16" value="ThinCrusDouth" style="swimlane;fontStyle=1;align=center;verticalAlign=top;childLayout=stackLayout;horizontal=1;startSize=34;horizontalStack=0;resizeParent=1;resizeParentMax=0;resizeLast=0;collapsible=1;marginBottom=0;whiteSpace=wrap;html=1;" parent="1" vertex="1">
          <mxGeometry x="130" y="700" width="350" height="100" as="geometry" />
        </mxCell>
        <mxCell id="oKW2fMTISq9tYgL3_GIv-18" value="" style="line;strokeWidth=1;fillColor=none;align=left;verticalAlign=middle;spacingTop=-1;spacingLeft=3;spacingRight=3;rotatable=0;labelPosition=right;points=[];portConstraint=eastwest;strokeColor=inherit;" parent="oKW2fMTISq9tYgL3_GIv-16" vertex="1">
          <mxGeometry y="34" width="350" height="66" as="geometry" />
        </mxCell>
        <mxCell id="oKW2fMTISq9tYgL3_GIv-20" value="ThickCrustDouth" style="swimlane;fontStyle=1;align=center;verticalAlign=top;childLayout=stackLayout;horizontal=1;startSize=34;horizontalStack=0;resizeParent=1;resizeParentMax=0;resizeLast=0;collapsible=1;marginBottom=0;whiteSpace=wrap;html=1;" parent="1" vertex="1">
          <mxGeometry x="540" y="700" width="350" height="100" as="geometry" />
        </mxCell>
        <mxCell id="oKW2fMTISq9tYgL3_GIv-21" value="" style="line;strokeWidth=1;fillColor=none;align=left;verticalAlign=middle;spacingTop=-1;spacingLeft=3;spacingRight=3;rotatable=0;labelPosition=right;points=[];portConstraint=eastwest;strokeColor=inherit;" parent="oKW2fMTISq9tYgL3_GIv-20" vertex="1">
          <mxGeometry y="34" width="350" height="66" as="geometry" />
        </mxCell>
        <mxCell id="oKW2fMTISq9tYgL3_GIv-23" value="" style="endArrow=block;dashed=1;endFill=0;endSize=12;html=1;rounded=0;entryX=0.557;entryY=1;entryDx=0;entryDy=0;entryPerimeter=0;exitX=0.57;exitY=-0.007;exitDx=0;exitDy=0;exitPerimeter=0;" parent="1" source="oKW2fMTISq9tYgL3_GIv-16" edge="1">
          <mxGeometry width="160" relative="1" as="geometry">
            <mxPoint x="300" y="780" as="sourcePoint" />
            <mxPoint x="510" y="650" as="targetPoint" />
          </mxGeometry>
        </mxCell>
        <mxCell id="oKW2fMTISq9tYgL3_GIv-24" value="" style="endArrow=block;dashed=1;endFill=0;endSize=12;html=1;rounded=0;entryX=0.5;entryY=1;entryDx=0;entryDy=0;exitX=0.357;exitY=-0.04;exitDx=0;exitDy=0;exitPerimeter=0;" parent="1" source="oKW2fMTISq9tYgL3_GIv-20" target="oKW2fMTISq9tYgL3_GIv-15" edge="1">
          <mxGeometry width="160" relative="1" as="geometry">
            <mxPoint x="340" y="709" as="sourcePoint" />
            <mxPoint x="520" y="660" as="targetPoint" />
          </mxGeometry>
        </mxCell>
        <mxCell id="oKW2fMTISq9tYgL3_GIv-25" value="«interface»&lt;br&gt;&lt;b&gt;Sauce&lt;/b&gt;" style="html=1;whiteSpace=wrap;" parent="1" vertex="1">
          <mxGeometry x="420" y="820" width="180" height="50" as="geometry" />
        </mxCell>
        <mxCell id="oKW2fMTISq9tYgL3_GIv-26" value="PlumTomatoSauce" style="swimlane;fontStyle=1;align=center;verticalAlign=top;childLayout=stackLayout;horizontal=1;startSize=34;horizontalStack=0;resizeParent=1;resizeParentMax=0;resizeLast=0;collapsible=1;marginBottom=0;whiteSpace=wrap;html=1;" parent="1" vertex="1">
          <mxGeometry x="110" y="920" width="350" height="100" as="geometry" />
        </mxCell>
        <mxCell id="oKW2fMTISq9tYgL3_GIv-27" value="" style="line;strokeWidth=1;fillColor=none;align=left;verticalAlign=middle;spacingTop=-1;spacingLeft=3;spacingRight=3;rotatable=0;labelPosition=right;points=[];portConstraint=eastwest;strokeColor=inherit;" parent="oKW2fMTISq9tYgL3_GIv-26" vertex="1">
          <mxGeometry y="34" width="350" height="66" as="geometry" />
        </mxCell>
        <mxCell id="oKW2fMTISq9tYgL3_GIv-28" value="MarinaraSauce" style="swimlane;fontStyle=1;align=center;verticalAlign=top;childLayout=stackLayout;horizontal=1;startSize=34;horizontalStack=0;resizeParent=1;resizeParentMax=0;resizeLast=0;collapsible=1;marginBottom=0;whiteSpace=wrap;html=1;" parent="1" vertex="1">
          <mxGeometry x="520" y="920" width="350" height="100" as="geometry" />
        </mxCell>
        <mxCell id="oKW2fMTISq9tYgL3_GIv-29" value="" style="line;strokeWidth=1;fillColor=none;align=left;verticalAlign=middle;spacingTop=-1;spacingLeft=3;spacingRight=3;rotatable=0;labelPosition=right;points=[];portConstraint=eastwest;strokeColor=inherit;" parent="oKW2fMTISq9tYgL3_GIv-28" vertex="1">
          <mxGeometry y="34" width="350" height="66" as="geometry" />
        </mxCell>
        <mxCell id="oKW2fMTISq9tYgL3_GIv-30" value="" style="endArrow=block;dashed=1;endFill=0;endSize=12;html=1;rounded=0;entryX=0.557;entryY=1;entryDx=0;entryDy=0;entryPerimeter=0;exitX=0.57;exitY=-0.007;exitDx=0;exitDy=0;exitPerimeter=0;" parent="1" source="oKW2fMTISq9tYgL3_GIv-26" edge="1">
          <mxGeometry width="160" relative="1" as="geometry">
            <mxPoint x="280" y="1000" as="sourcePoint" />
            <mxPoint x="490" y="870" as="targetPoint" />
          </mxGeometry>
        </mxCell>
        <mxCell id="oKW2fMTISq9tYgL3_GIv-31" value="" style="endArrow=block;dashed=1;endFill=0;endSize=12;html=1;rounded=0;entryX=0.5;entryY=1;entryDx=0;entryDy=0;exitX=0.357;exitY=-0.04;exitDx=0;exitDy=0;exitPerimeter=0;" parent="1" source="oKW2fMTISq9tYgL3_GIv-28" target="oKW2fMTISq9tYgL3_GIv-25" edge="1">
          <mxGeometry width="160" relative="1" as="geometry">
            <mxPoint x="320" y="929" as="sourcePoint" />
            <mxPoint x="500" y="880" as="targetPoint" />
          </mxGeometry>
        </mxCell>
        <mxCell id="oKW2fMTISq9tYgL3_GIv-32" value="«interface»&lt;br&gt;&lt;b&gt;Cheese&lt;/b&gt;" style="html=1;whiteSpace=wrap;" parent="1" vertex="1">
          <mxGeometry x="410" y="1060" width="180" height="50" as="geometry" />
        </mxCell>
        <mxCell id="oKW2fMTISq9tYgL3_GIv-33" value="ReggianoCheese" style="swimlane;fontStyle=1;align=center;verticalAlign=top;childLayout=stackLayout;horizontal=1;startSize=34;horizontalStack=0;resizeParent=1;resizeParentMax=0;resizeLast=0;collapsible=1;marginBottom=0;whiteSpace=wrap;html=1;" parent="1" vertex="1">
          <mxGeometry x="100" y="1160" width="350" height="100" as="geometry" />
        </mxCell>
        <mxCell id="oKW2fMTISq9tYgL3_GIv-34" value="" style="line;strokeWidth=1;fillColor=none;align=left;verticalAlign=middle;spacingTop=-1;spacingLeft=3;spacingRight=3;rotatable=0;labelPosition=right;points=[];portConstraint=eastwest;strokeColor=inherit;" parent="oKW2fMTISq9tYgL3_GIv-33" vertex="1">
          <mxGeometry y="34" width="350" height="66" as="geometry" />
        </mxCell>
        <mxCell id="oKW2fMTISq9tYgL3_GIv-35" value="MozzarellaCheese" style="swimlane;fontStyle=1;align=center;verticalAlign=top;childLayout=stackLayout;horizontal=1;startSize=34;horizontalStack=0;resizeParent=1;resizeParentMax=0;resizeLast=0;collapsible=1;marginBottom=0;whiteSpace=wrap;html=1;" parent="1" vertex="1">
          <mxGeometry x="510" y="1160" width="350" height="100" as="geometry" />
        </mxCell>
        <mxCell id="oKW2fMTISq9tYgL3_GIv-36" value="" style="line;strokeWidth=1;fillColor=none;align=left;verticalAlign=middle;spacingTop=-1;spacingLeft=3;spacingRight=3;rotatable=0;labelPosition=right;points=[];portConstraint=eastwest;strokeColor=inherit;" parent="oKW2fMTISq9tYgL3_GIv-35" vertex="1">
          <mxGeometry y="34" width="350" height="66" as="geometry" />
        </mxCell>
        <mxCell id="oKW2fMTISq9tYgL3_GIv-37" value="" style="endArrow=block;dashed=1;endFill=0;endSize=12;html=1;rounded=0;entryX=0.557;entryY=1;entryDx=0;entryDy=0;entryPerimeter=0;exitX=0.57;exitY=-0.007;exitDx=0;exitDy=0;exitPerimeter=0;" parent="1" source="oKW2fMTISq9tYgL3_GIv-33" edge="1">
          <mxGeometry width="160" relative="1" as="geometry">
            <mxPoint x="270" y="1240" as="sourcePoint" />
            <mxPoint x="480" y="1110" as="targetPoint" />
          </mxGeometry>
        </mxCell>
        <mxCell id="oKW2fMTISq9tYgL3_GIv-38" value="" style="endArrow=block;dashed=1;endFill=0;endSize=12;html=1;rounded=0;entryX=0.5;entryY=1;entryDx=0;entryDy=0;exitX=0.357;exitY=-0.04;exitDx=0;exitDy=0;exitPerimeter=0;" parent="1" source="oKW2fMTISq9tYgL3_GIv-35" target="oKW2fMTISq9tYgL3_GIv-32" edge="1">
          <mxGeometry width="160" relative="1" as="geometry">
            <mxPoint x="310" y="1169" as="sourcePoint" />
            <mxPoint x="490" y="1120" as="targetPoint" />
          </mxGeometry>
        </mxCell>
        <mxCell id="oKW2fMTISq9tYgL3_GIv-39" value="«interface»&lt;br&gt;&lt;b&gt;Clams&lt;/b&gt;" style="html=1;whiteSpace=wrap;" parent="1" vertex="1">
          <mxGeometry x="390" y="1280" width="180" height="50" as="geometry" />
        </mxCell>
        <mxCell id="oKW2fMTISq9tYgL3_GIv-40" value="FreshClams" style="swimlane;fontStyle=1;align=center;verticalAlign=top;childLayout=stackLayout;horizontal=1;startSize=34;horizontalStack=0;resizeParent=1;resizeParentMax=0;resizeLast=0;collapsible=1;marginBottom=0;whiteSpace=wrap;html=1;" parent="1" vertex="1">
          <mxGeometry x="80" y="1380" width="350" height="100" as="geometry" />
        </mxCell>
        <mxCell id="oKW2fMTISq9tYgL3_GIv-41" value="" style="line;strokeWidth=1;fillColor=none;align=left;verticalAlign=middle;spacingTop=-1;spacingLeft=3;spacingRight=3;rotatable=0;labelPosition=right;points=[];portConstraint=eastwest;strokeColor=inherit;" parent="oKW2fMTISq9tYgL3_GIv-40" vertex="1">
          <mxGeometry y="34" width="350" height="66" as="geometry" />
        </mxCell>
        <mxCell id="oKW2fMTISq9tYgL3_GIv-42" value="FrozenClams" style="swimlane;fontStyle=1;align=center;verticalAlign=top;childLayout=stackLayout;horizontal=1;startSize=34;horizontalStack=0;resizeParent=1;resizeParentMax=0;resizeLast=0;collapsible=1;marginBottom=0;whiteSpace=wrap;html=1;" parent="1" vertex="1">
          <mxGeometry x="490" y="1380" width="350" height="100" as="geometry" />
        </mxCell>
        <mxCell id="oKW2fMTISq9tYgL3_GIv-43" value="" style="line;strokeWidth=1;fillColor=none;align=left;verticalAlign=middle;spacingTop=-1;spacingLeft=3;spacingRight=3;rotatable=0;labelPosition=right;points=[];portConstraint=eastwest;strokeColor=inherit;" parent="oKW2fMTISq9tYgL3_GIv-42" vertex="1">
          <mxGeometry y="34" width="350" height="66" as="geometry" />
        </mxCell>
        <mxCell id="oKW2fMTISq9tYgL3_GIv-44" value="" style="endArrow=block;dashed=1;endFill=0;endSize=12;html=1;rounded=0;entryX=0.557;entryY=1;entryDx=0;entryDy=0;entryPerimeter=0;exitX=0.57;exitY=-0.007;exitDx=0;exitDy=0;exitPerimeter=0;" parent="1" source="oKW2fMTISq9tYgL3_GIv-40" edge="1">
          <mxGeometry width="160" relative="1" as="geometry">
            <mxPoint x="250" y="1460" as="sourcePoint" />
            <mxPoint x="460" y="1330" as="targetPoint" />
          </mxGeometry>
        </mxCell>
        <mxCell id="oKW2fMTISq9tYgL3_GIv-45" value="" style="endArrow=block;dashed=1;endFill=0;endSize=12;html=1;rounded=0;entryX=0.5;entryY=1;entryDx=0;entryDy=0;exitX=0.357;exitY=-0.04;exitDx=0;exitDy=0;exitPerimeter=0;" parent="1" source="oKW2fMTISq9tYgL3_GIv-42" target="oKW2fMTISq9tYgL3_GIv-39" edge="1">
          <mxGeometry width="160" relative="1" as="geometry">
            <mxPoint x="290" y="1389" as="sourcePoint" />
            <mxPoint x="470" y="1340" as="targetPoint" />
          </mxGeometry>
        </mxCell>
        <mxCell id="oKW2fMTISq9tYgL3_GIv-47" value="" style="endArrow=open;endFill=1;endSize=12;html=1;rounded=0;exitX=0.359;exitY=1.009;exitDx=0;exitDy=0;exitPerimeter=0;" parent="1" edge="1">
          <mxGeometry width="160" relative="1" as="geometry">
            <mxPoint x="256" y="571" as="sourcePoint" />
            <mxPoint x="220" y="910" as="targetPoint" />
          </mxGeometry>
        </mxCell>
        <mxCell id="oKW2fMTISq9tYgL3_GIv-48" value="" style="endArrow=open;endFill=1;endSize=12;html=1;rounded=0;" parent="1" target="oKW2fMTISq9tYgL3_GIv-33" edge="1">
          <mxGeometry width="160" relative="1" as="geometry">
            <mxPoint x="260" y="570" as="sourcePoint" />
            <mxPoint x="230" y="920" as="targetPoint" />
            <Array as="points">
              <mxPoint x="70" y="770" />
            </Array>
          </mxGeometry>
        </mxCell>
        <mxCell id="oKW2fMTISq9tYgL3_GIv-49" value="" style="endArrow=open;endFill=1;endSize=12;html=1;rounded=0;exitX=0;exitY=0.059;exitDx=0;exitDy=0;exitPerimeter=0;" parent="1" source="oKW2fMTISq9tYgL3_GIv-3" edge="1">
          <mxGeometry width="160" relative="1" as="geometry">
            <mxPoint x="276" y="591" as="sourcePoint" />
            <mxPoint x="190" y="1370" as="targetPoint" />
            <Array as="points">
              <mxPoint x="40" y="790" />
            </Array>
          </mxGeometry>
        </mxCell>
        <mxCell id="oKW2fMTISq9tYgL3_GIv-50" value="" style="endArrow=open;endFill=1;endSize=12;html=1;rounded=0;exitX=0.559;exitY=1.015;exitDx=0;exitDy=0;exitPerimeter=0;entryX=0.631;entryY=-0.049;entryDx=0;entryDy=0;entryPerimeter=0;" parent="1" source="oKW2fMTISq9tYgL3_GIv-12" target="oKW2fMTISq9tYgL3_GIv-20" edge="1">
          <mxGeometry width="160" relative="1" as="geometry">
            <mxPoint x="267" y="573" as="sourcePoint" />
            <mxPoint x="302" y="710" as="targetPoint" />
          </mxGeometry>
        </mxCell>
        <mxCell id="oKW2fMTISq9tYgL3_GIv-51" value="" style="endArrow=open;endFill=1;endSize=12;html=1;rounded=0;exitX=0.559;exitY=1.015;exitDx=0;exitDy=0;exitPerimeter=0;entryX=0.664;entryY=-0.037;entryDx=0;entryDy=0;entryPerimeter=0;" parent="1" target="oKW2fMTISq9tYgL3_GIv-28" edge="1">
          <mxGeometry width="160" relative="1" as="geometry">
            <mxPoint x="706" y="562" as="sourcePoint" />
            <mxPoint x="771" y="705" as="targetPoint" />
            <Array as="points">
              <mxPoint x="940" y="740" />
            </Array>
          </mxGeometry>
        </mxCell>
        <mxCell id="oKW2fMTISq9tYgL3_GIv-52" value="" style="endArrow=open;endFill=1;endSize=12;html=1;rounded=0;exitX=0.559;exitY=1.015;exitDx=0;exitDy=0;exitPerimeter=0;entryX=0.596;entryY=-0.021;entryDx=0;entryDy=0;entryPerimeter=0;" parent="1" target="oKW2fMTISq9tYgL3_GIv-35" edge="1">
          <mxGeometry width="160" relative="1" as="geometry">
            <mxPoint x="706" y="562" as="sourcePoint" />
            <mxPoint x="771" y="705" as="targetPoint" />
            <Array as="points">
              <mxPoint x="1090" y="820" />
            </Array>
          </mxGeometry>
        </mxCell>
        <mxCell id="oKW2fMTISq9tYgL3_GIv-53" value="" style="endArrow=open;endFill=1;endSize=12;html=1;rounded=0;exitX=0.559;exitY=1.015;exitDx=0;exitDy=0;exitPerimeter=0;" parent="1" target="oKW2fMTISq9tYgL3_GIv-42" edge="1">
          <mxGeometry width="160" relative="1" as="geometry">
            <mxPoint x="716" y="572" as="sourcePoint" />
            <mxPoint x="729" y="1168" as="targetPoint" />
            <Array as="points">
              <mxPoint x="1100" y="830" />
            </Array>
          </mxGeometry>
        </mxCell>
        <mxCell id="oKW2fMTISq9tYgL3_GIv-54" value="&lt;b&gt;&lt;font style=&quot;font-size: 24px;&quot;&gt;抽象工厂&lt;/font&gt;&lt;/b&gt;" style="text;html=1;strokeColor=none;fillColor=none;align=center;verticalAlign=middle;whiteSpace=wrap;rounded=0;" parent="1" vertex="1">
          <mxGeometry x="350" y="60" width="400" height="30" as="geometry" />
        </mxCell>
        <mxCell id="C3771wi08WSxfgnbRyNw-1" value="&lt;span style=&quot;font-size: 24px;&quot;&gt;&lt;b&gt;简单工厂&lt;/b&gt;&lt;/span&gt;" style="text;html=1;strokeColor=none;fillColor=none;align=center;verticalAlign=middle;whiteSpace=wrap;rounded=0;" parent="1" vertex="1">
          <mxGeometry x="1210" y="70" width="400" height="30" as="geometry" />
        </mxCell>
        <mxCell id="C3771wi08WSxfgnbRyNw-2" value="«interface»&lt;br&gt;&lt;b&gt;Product&lt;/b&gt;" style="html=1;whiteSpace=wrap;" parent="1" vertex="1">
          <mxGeometry x="1310" y="150" width="180" height="50" as="geometry" />
        </mxCell>
        <mxCell id="C3771wi08WSxfgnbRyNw-7" value="ConcreteProductA" style="swimlane;fontStyle=1;align=center;verticalAlign=top;childLayout=stackLayout;horizontal=1;startSize=26;horizontalStack=0;resizeParent=1;resizeParentMax=0;resizeLast=0;collapsible=1;marginBottom=0;whiteSpace=wrap;html=1;" parent="1" vertex="1">
          <mxGeometry x="1130" y="320" width="260" height="60" as="geometry" />
        </mxCell>
        <mxCell id="C3771wi08WSxfgnbRyNw-8" value="+ field: type" style="text;strokeColor=none;fillColor=none;align=left;verticalAlign=top;spacingLeft=4;spacingRight=4;overflow=hidden;rotatable=0;points=[[0,0.5],[1,0.5]];portConstraint=eastwest;whiteSpace=wrap;html=1;" parent="C3771wi08WSxfgnbRyNw-7" vertex="1">
          <mxGeometry y="26" width="260" height="26" as="geometry" />
        </mxCell>
        <mxCell id="C3771wi08WSxfgnbRyNw-9" value="" style="line;strokeWidth=1;fillColor=none;align=left;verticalAlign=middle;spacingTop=-1;spacingLeft=3;spacingRight=3;rotatable=0;labelPosition=right;points=[];portConstraint=eastwest;strokeColor=inherit;" parent="C3771wi08WSxfgnbRyNw-7" vertex="1">
          <mxGeometry y="52" width="260" height="8" as="geometry" />
        </mxCell>
        <mxCell id="C3771wi08WSxfgnbRyNw-11" value="ConcreteProductB" style="swimlane;fontStyle=1;align=center;verticalAlign=top;childLayout=stackLayout;horizontal=1;startSize=26;horizontalStack=0;resizeParent=1;resizeParentMax=0;resizeLast=0;collapsible=1;marginBottom=0;whiteSpace=wrap;html=1;" parent="1" vertex="1">
          <mxGeometry x="1410" y="320" width="260" height="60" as="geometry" />
        </mxCell>
        <mxCell id="C3771wi08WSxfgnbRyNw-12" value="+ field: type" style="text;strokeColor=none;fillColor=none;align=left;verticalAlign=top;spacingLeft=4;spacingRight=4;overflow=hidden;rotatable=0;points=[[0,0.5],[1,0.5]];portConstraint=eastwest;whiteSpace=wrap;html=1;" parent="C3771wi08WSxfgnbRyNw-11" vertex="1">
          <mxGeometry y="26" width="260" height="26" as="geometry" />
        </mxCell>
        <mxCell id="C3771wi08WSxfgnbRyNw-13" value="" style="line;strokeWidth=1;fillColor=none;align=left;verticalAlign=middle;spacingTop=-1;spacingLeft=3;spacingRight=3;rotatable=0;labelPosition=right;points=[];portConstraint=eastwest;strokeColor=inherit;" parent="C3771wi08WSxfgnbRyNw-11" vertex="1">
          <mxGeometry y="52" width="260" height="8" as="geometry" />
        </mxCell>
        <mxCell id="C3771wi08WSxfgnbRyNw-14" value="" style="endArrow=block;dashed=1;endFill=0;endSize=12;html=1;rounded=0;exitX=0.623;exitY=0.022;exitDx=0;exitDy=0;exitPerimeter=0;entryX=0.5;entryY=1;entryDx=0;entryDy=0;" parent="1" source="C3771wi08WSxfgnbRyNw-7" target="C3771wi08WSxfgnbRyNw-2" edge="1">
          <mxGeometry width="160" relative="1" as="geometry">
            <mxPoint x="902" y="423" as="sourcePoint" />
            <mxPoint x="760" y="300" as="targetPoint" />
          </mxGeometry>
        </mxCell>
        <mxCell id="C3771wi08WSxfgnbRyNw-15" value="" style="endArrow=block;dashed=1;endFill=0;endSize=12;html=1;rounded=0;exitX=0.397;exitY=-0.022;exitDx=0;exitDy=0;exitPerimeter=0;entryX=0.5;entryY=1;entryDx=0;entryDy=0;" parent="1" source="C3771wi08WSxfgnbRyNw-11" target="C3771wi08WSxfgnbRyNw-2" edge="1">
          <mxGeometry width="160" relative="1" as="geometry">
            <mxPoint x="1302" y="331" as="sourcePoint" />
            <mxPoint x="1410" y="210" as="targetPoint" />
          </mxGeometry>
        </mxCell>
        <mxCell id="C3771wi08WSxfgnbRyNw-16" value="SimpleFactory" style="swimlane;fontStyle=1;align=center;verticalAlign=top;childLayout=stackLayout;horizontal=1;startSize=26;horizontalStack=0;resizeParent=1;resizeParentMax=0;resizeLast=0;collapsible=1;marginBottom=0;whiteSpace=wrap;html=1;" parent="1" vertex="1">
          <mxGeometry x="1830" y="160" width="260" height="60" as="geometry" />
        </mxCell>
        <mxCell id="C3771wi08WSxfgnbRyNw-17" value="+ field: type" style="text;strokeColor=none;fillColor=none;align=left;verticalAlign=top;spacingLeft=4;spacingRight=4;overflow=hidden;rotatable=0;points=[[0,0.5],[1,0.5]];portConstraint=eastwest;whiteSpace=wrap;html=1;" parent="C3771wi08WSxfgnbRyNw-16" vertex="1">
          <mxGeometry y="26" width="260" height="26" as="geometry" />
        </mxCell>
        <mxCell id="C3771wi08WSxfgnbRyNw-18" value="" style="line;strokeWidth=1;fillColor=none;align=left;verticalAlign=middle;spacingTop=-1;spacingLeft=3;spacingRight=3;rotatable=0;labelPosition=right;points=[];portConstraint=eastwest;strokeColor=inherit;" parent="C3771wi08WSxfgnbRyNw-16" vertex="1">
          <mxGeometry y="52" width="260" height="8" as="geometry" />
        </mxCell>
        <mxCell id="C3771wi08WSxfgnbRyNw-19" value="Use" style="endArrow=open;endSize=12;dashed=1;html=1;rounded=0;exitX=0.5;exitY=1;exitDx=0;exitDy=0;entryX=0.585;entryY=-0.044;entryDx=0;entryDy=0;entryPerimeter=0;" parent="1" source="C3771wi08WSxfgnbRyNw-16" target="C3771wi08WSxfgnbRyNw-7" edge="1">
          <mxGeometry width="160" relative="1" as="geometry">
            <mxPoint x="1910" y="370" as="sourcePoint" />
            <mxPoint x="2070" y="370" as="targetPoint" />
          </mxGeometry>
        </mxCell>
        <mxCell id="C3771wi08WSxfgnbRyNw-20" value="Use" style="endArrow=open;endSize=12;dashed=1;html=1;rounded=0;entryX=0.5;entryY=0;entryDx=0;entryDy=0;" parent="1" target="C3771wi08WSxfgnbRyNw-11" edge="1">
          <mxGeometry width="160" relative="1" as="geometry">
            <mxPoint x="1960" y="220" as="sourcePoint" />
            <mxPoint x="1292" y="327" as="targetPoint" />
          </mxGeometry>
        </mxCell>
        <mxCell id="C3771wi08WSxfgnbRyNw-22" value="&lt;b style=&quot;border-color: var(--border-color); color: rgb(0, 0, 0); font-family: Helvetica; font-size: 24px; font-style: normal; font-variant-ligatures: normal; font-variant-caps: normal; letter-spacing: normal; orphans: 2; text-align: center; text-indent: 0px; text-transform: none; widows: 2; word-spacing: 0px; -webkit-text-stroke-width: 0px; background-color: rgb(251, 251, 251); text-decoration-thickness: initial; text-decoration-style: initial; text-decoration-color: initial;&quot;&gt;工厂方法&lt;/b&gt;" style="text;whiteSpace=wrap;html=1;" parent="1" vertex="1">
          <mxGeometry x="1620" y="550" width="130" height="50" as="geometry" />
        </mxCell>
        <mxCell id="h5OAAfXLOelSmoesojuL-1" value="«interface»&lt;br&gt;&lt;b&gt;Product&lt;/b&gt;" style="html=1;whiteSpace=wrap;" vertex="1" parent="1">
          <mxGeometry x="1320" y="620" width="180" height="50" as="geometry" />
        </mxCell>
        <mxCell id="h5OAAfXLOelSmoesojuL-2" value="ConcreteProductA" style="swimlane;fontStyle=1;align=center;verticalAlign=top;childLayout=stackLayout;horizontal=1;startSize=26;horizontalStack=0;resizeParent=1;resizeParentMax=0;resizeLast=0;collapsible=1;marginBottom=0;whiteSpace=wrap;html=1;" vertex="1" parent="1">
          <mxGeometry x="1140" y="790" width="260" height="60" as="geometry" />
        </mxCell>
        <mxCell id="h5OAAfXLOelSmoesojuL-3" value="+ field: type" style="text;strokeColor=none;fillColor=none;align=left;verticalAlign=top;spacingLeft=4;spacingRight=4;overflow=hidden;rotatable=0;points=[[0,0.5],[1,0.5]];portConstraint=eastwest;whiteSpace=wrap;html=1;" vertex="1" parent="h5OAAfXLOelSmoesojuL-2">
          <mxGeometry y="26" width="260" height="26" as="geometry" />
        </mxCell>
        <mxCell id="h5OAAfXLOelSmoesojuL-4" value="" style="line;strokeWidth=1;fillColor=none;align=left;verticalAlign=middle;spacingTop=-1;spacingLeft=3;spacingRight=3;rotatable=0;labelPosition=right;points=[];portConstraint=eastwest;strokeColor=inherit;" vertex="1" parent="h5OAAfXLOelSmoesojuL-2">
          <mxGeometry y="52" width="260" height="8" as="geometry" />
        </mxCell>
        <mxCell id="h5OAAfXLOelSmoesojuL-5" value="ConcreteProductB" style="swimlane;fontStyle=1;align=center;verticalAlign=top;childLayout=stackLayout;horizontal=1;startSize=26;horizontalStack=0;resizeParent=1;resizeParentMax=0;resizeLast=0;collapsible=1;marginBottom=0;whiteSpace=wrap;html=1;" vertex="1" parent="1">
          <mxGeometry x="1420" y="790" width="260" height="60" as="geometry" />
        </mxCell>
        <mxCell id="h5OAAfXLOelSmoesojuL-6" value="+ field: type" style="text;strokeColor=none;fillColor=none;align=left;verticalAlign=top;spacingLeft=4;spacingRight=4;overflow=hidden;rotatable=0;points=[[0,0.5],[1,0.5]];portConstraint=eastwest;whiteSpace=wrap;html=1;" vertex="1" parent="h5OAAfXLOelSmoesojuL-5">
          <mxGeometry y="26" width="260" height="26" as="geometry" />
        </mxCell>
        <mxCell id="h5OAAfXLOelSmoesojuL-7" value="" style="line;strokeWidth=1;fillColor=none;align=left;verticalAlign=middle;spacingTop=-1;spacingLeft=3;spacingRight=3;rotatable=0;labelPosition=right;points=[];portConstraint=eastwest;strokeColor=inherit;" vertex="1" parent="h5OAAfXLOelSmoesojuL-5">
          <mxGeometry y="52" width="260" height="8" as="geometry" />
        </mxCell>
        <mxCell id="h5OAAfXLOelSmoesojuL-8" value="" style="endArrow=block;dashed=1;endFill=0;endSize=12;html=1;rounded=0;exitX=0.623;exitY=0.022;exitDx=0;exitDy=0;exitPerimeter=0;entryX=0.5;entryY=1;entryDx=0;entryDy=0;" edge="1" parent="1" source="h5OAAfXLOelSmoesojuL-2" target="h5OAAfXLOelSmoesojuL-1">
          <mxGeometry width="160" relative="1" as="geometry">
            <mxPoint x="912" y="893" as="sourcePoint" />
            <mxPoint x="770" y="770" as="targetPoint" />
          </mxGeometry>
        </mxCell>
        <mxCell id="h5OAAfXLOelSmoesojuL-9" value="" style="endArrow=block;dashed=1;endFill=0;endSize=12;html=1;rounded=0;exitX=0.397;exitY=-0.022;exitDx=0;exitDy=0;exitPerimeter=0;entryX=0.5;entryY=1;entryDx=0;entryDy=0;" edge="1" parent="1" source="h5OAAfXLOelSmoesojuL-5" target="h5OAAfXLOelSmoesojuL-1">
          <mxGeometry width="160" relative="1" as="geometry">
            <mxPoint x="1312" y="801" as="sourcePoint" />
            <mxPoint x="1420" y="680" as="targetPoint" />
          </mxGeometry>
        </mxCell>
        <mxCell id="h5OAAfXLOelSmoesojuL-10" value="AbstoryFactory" style="swimlane;fontStyle=1;align=center;verticalAlign=top;childLayout=stackLayout;horizontal=1;startSize=26;horizontalStack=0;resizeParent=1;resizeParentMax=0;resizeLast=0;collapsible=1;marginBottom=0;whiteSpace=wrap;html=1;" vertex="1" parent="1">
          <mxGeometry x="1840" y="630" width="260" height="60" as="geometry" />
        </mxCell>
        <mxCell id="h5OAAfXLOelSmoesojuL-11" value="+ field: type" style="text;strokeColor=none;fillColor=none;align=left;verticalAlign=top;spacingLeft=4;spacingRight=4;overflow=hidden;rotatable=0;points=[[0,0.5],[1,0.5]];portConstraint=eastwest;whiteSpace=wrap;html=1;" vertex="1" parent="h5OAAfXLOelSmoesojuL-10">
          <mxGeometry y="26" width="260" height="26" as="geometry" />
        </mxCell>
        <mxCell id="h5OAAfXLOelSmoesojuL-12" value="" style="line;strokeWidth=1;fillColor=none;align=left;verticalAlign=middle;spacingTop=-1;spacingLeft=3;spacingRight=3;rotatable=0;labelPosition=right;points=[];portConstraint=eastwest;strokeColor=inherit;" vertex="1" parent="h5OAAfXLOelSmoesojuL-10">
          <mxGeometry y="52" width="260" height="8" as="geometry" />
        </mxCell>
        <mxCell id="h5OAAfXLOelSmoesojuL-13" value="Use" style="endArrow=open;endSize=12;dashed=1;html=1;rounded=0;exitX=0.654;exitY=1;exitDx=0;exitDy=0;exitPerimeter=0;" edge="1" parent="1" source="h5OAAfXLOelSmoesojuL-20">
          <mxGeometry width="160" relative="1" as="geometry">
            <mxPoint x="1920" y="840" as="sourcePoint" />
            <mxPoint x="1570" y="850" as="targetPoint" />
            <Array as="points">
              <mxPoint x="1940" y="1000" />
            </Array>
          </mxGeometry>
        </mxCell>
        <mxCell id="h5OAAfXLOelSmoesojuL-14" value="Use" style="endArrow=open;endSize=12;dashed=1;html=1;rounded=0;exitX=0.577;exitY=1;exitDx=0;exitDy=0;exitPerimeter=0;" edge="1" parent="1" source="h5OAAfXLOelSmoesojuL-17">
          <mxGeometry width="160" relative="1" as="geometry">
            <mxPoint x="1970" y="690" as="sourcePoint" />
            <mxPoint x="1280" y="860" as="targetPoint" />
            <Array as="points">
              <mxPoint x="1600" y="970" />
            </Array>
          </mxGeometry>
        </mxCell>
        <mxCell id="h5OAAfXLOelSmoesojuL-15" value="FactoryA" style="swimlane;fontStyle=1;align=center;verticalAlign=top;childLayout=stackLayout;horizontal=1;startSize=26;horizontalStack=0;resizeParent=1;resizeParentMax=0;resizeLast=0;collapsible=1;marginBottom=0;whiteSpace=wrap;html=1;" vertex="1" parent="1">
          <mxGeometry x="1780" y="790" width="260" height="60" as="geometry" />
        </mxCell>
        <mxCell id="h5OAAfXLOelSmoesojuL-16" value="+ field: type" style="text;strokeColor=none;fillColor=none;align=left;verticalAlign=top;spacingLeft=4;spacingRight=4;overflow=hidden;rotatable=0;points=[[0,0.5],[1,0.5]];portConstraint=eastwest;whiteSpace=wrap;html=1;" vertex="1" parent="h5OAAfXLOelSmoesojuL-15">
          <mxGeometry y="26" width="260" height="26" as="geometry" />
        </mxCell>
        <mxCell id="h5OAAfXLOelSmoesojuL-17" value="" style="line;strokeWidth=1;fillColor=none;align=left;verticalAlign=middle;spacingTop=-1;spacingLeft=3;spacingRight=3;rotatable=0;labelPosition=right;points=[];portConstraint=eastwest;strokeColor=inherit;" vertex="1" parent="h5OAAfXLOelSmoesojuL-15">
          <mxGeometry y="52" width="260" height="8" as="geometry" />
        </mxCell>
        <mxCell id="h5OAAfXLOelSmoesojuL-18" value="FactoryB" style="swimlane;fontStyle=1;align=center;verticalAlign=top;childLayout=stackLayout;horizontal=1;startSize=26;horizontalStack=0;resizeParent=1;resizeParentMax=0;resizeLast=0;collapsible=1;marginBottom=0;whiteSpace=wrap;html=1;" vertex="1" parent="1">
          <mxGeometry x="2070" y="790" width="260" height="60" as="geometry" />
        </mxCell>
        <mxCell id="h5OAAfXLOelSmoesojuL-19" value="+ field: type" style="text;strokeColor=none;fillColor=none;align=left;verticalAlign=top;spacingLeft=4;spacingRight=4;overflow=hidden;rotatable=0;points=[[0,0.5],[1,0.5]];portConstraint=eastwest;whiteSpace=wrap;html=1;" vertex="1" parent="h5OAAfXLOelSmoesojuL-18">
          <mxGeometry y="26" width="260" height="26" as="geometry" />
        </mxCell>
        <mxCell id="h5OAAfXLOelSmoesojuL-20" value="" style="line;strokeWidth=1;fillColor=none;align=left;verticalAlign=middle;spacingTop=-1;spacingLeft=3;spacingRight=3;rotatable=0;labelPosition=right;points=[];portConstraint=eastwest;strokeColor=inherit;" vertex="1" parent="h5OAAfXLOelSmoesojuL-18">
          <mxGeometry y="52" width="260" height="8" as="geometry" />
        </mxCell>
        <mxCell id="h5OAAfXLOelSmoesojuL-21" value="" style="endArrow=block;dashed=1;endFill=0;endSize=12;html=1;rounded=0;entryX=0.5;entryY=1;entryDx=0;entryDy=0;" edge="1" parent="1" source="h5OAAfXLOelSmoesojuL-15" target="h5OAAfXLOelSmoesojuL-10">
          <mxGeometry width="160" relative="1" as="geometry">
            <mxPoint x="1533" y="799" as="sourcePoint" />
            <mxPoint x="1420" y="680" as="targetPoint" />
          </mxGeometry>
        </mxCell>
        <mxCell id="h5OAAfXLOelSmoesojuL-22" value="" style="endArrow=block;dashed=1;endFill=0;endSize=12;html=1;rounded=0;entryX=0.5;entryY=1;entryDx=0;entryDy=0;exitX=0.5;exitY=0;exitDx=0;exitDy=0;" edge="1" parent="1" source="h5OAAfXLOelSmoesojuL-18">
          <mxGeometry width="160" relative="1" as="geometry">
            <mxPoint x="1934" y="800" as="sourcePoint" />
            <mxPoint x="1980" y="700" as="targetPoint" />
          </mxGeometry>
        </mxCell>
      </root>
    </mxGraphModel>
  </diagram>
</mxfile>
